# xmcd
# 
# Track frame offsets:
#     150
#     45493
#     91723
#     126649
#     149852
#     173832
#     211388
#     252112
#     295839
# 
# Disc length: 4394
# 
# Revision: 7
# Processed by: cddbd v1.5.2PL0 Copyright (c) Steve Scherf et al.
# Submitted via: fre:ac v1.1beta1
# 
DISCID=88112809
DTITLE=上原ひろみ - Spiral
DYEAR=2005
DGENRE=J-Jazz
TTITLE0=Spiral
TTITLE1=Music For Three-Piece-Orchestra - Open Door～Tuning～Prologue
TTITLE2=Music For Three-Piece-Orchestra - Deja vu
TTITLE3=Music For Three-Piece-Orchestra - Reverse
TTITLE4=Music For Three-Piece-Orchestra - Edge
TTITLE5=Old Castle, by the river, in the middle of a forest (古城、川のほとり、深い森の中。)
TTITLE6=Love and Laughter
TTITLE7=Return of Kung-Fu World Champion
TTITLE8=Big Chill
EXTD=
EXTT0=
EXTT1=
EXTT2=
EXTT3=
EXTT4=
EXTT5=
EXTT6=
EXTT7=
EXTT8=
PLAYORDER=
